PathFileType	4	(X/Y/Z)	/Users/itak/Documents/Research/Walk-IL/dataset/trc/00301_00010.trc
DataRate	CameraRate	NumFrames	NumMarkers	Units	OrigDataRate	OrigDataStartFrame	OrigNumFrames
100.000000	100.000000	4	56	mm	100.000000	344	394
Frame#	Time	RPSI			LPSI			L3			STRN			T10			C7			CLAV			RBAK			LBAK			LSHO			LUPA			LAEL			LAOL			LWTS			LWPS			LFRA			LIFD			LHPS			LHTS			RSHO			RUPA			RAEL			RAOL			RWTS			RWPS			RFRA			RIFD			RHTS			RHPS			RBHD			LFHD			RFHD			LBHD			LHIP			RASI			LASI			LKNE			LTHI			LANK			LTIP			LTOE			LMT1			LMT5			LHEE			RKNE			RTHI			RTIP			RTOE			RMT1			RMT5			RHIP			RANK			RHEE			*53			*54			*55			
		X1	Y1	Z1	X2	Y2	Z2	X3	Y3	Z3	X4	Y4	Z4	X5	Y5	Z5	X6	Y6	Z6	X7	Y7	Z7	X8	Y8	Z8	X9	Y9	Z9	X10	Y10	Z10	X11	Y11	Z11	X12	Y12	Z12	X13	Y13	Z13	X14	Y14	Z14	X15	Y15	Z15	X16	Y16	Z16	X17	Y17	Z17	X18	Y18	Z18	X19	Y19	Z19	X20	Y20	Z20	X21	Y21	Z21	X22	Y22	Z22	X23	Y23	Z23	X24	Y24	Z24	X25	Y25	Z25	X26	Y26	Z26	X27	Y27	Z27	X28	Y28	Z28	X29	Y29	Z29	X30	Y30	Z30	X31	Y31	Z31	X32	Y32	Z32	X33	Y33	Z33	X34	Y34	Z34	X35	Y35	Z35	X36	Y36	Z36	X37	Y37	Z37	X38	Y38	Z38	X39	Y39	Z39	X40	Y40	Z40	X41	Y41	Z41	X42	Y42	Z42	X43	Y43	Z43	X44	Y44	Z44	X45	Y45	Z45	X46	Y46	Z46	X47	Y47	Z47	X48	Y48	Z48	X49	Y49	Z49	X50	Y50	Z50	X51	Y51	Z51	X52	Y52	Z52	X53	Y53	Z53	X54	Y54	Z54	X55	Y55	Z55	X56	Y56	Z56	

345	3.44	479.9871826171875	1006.926696777344	-83.87628173828125	303.5383911132812	998.2048950195312	-87.69967651367188	389.8574829101562	1069.159423828125	-101.2131576538086	384.8764953613281	1248.439208984375	-343.6517333984375	391.4225769042969	1182.018798828125	-78.63662719726562	373.4602355957031	1428.551025390625	-119.6654357910156	380.5478820800781	1346.170166015625	-277.0012817382812	450.3749389648438	1290.355590820312	-71.03526306152344	267.4047546386719	1388.893432617188	-106.4857482910156	215.6109313964844	1394.645751953125	-199.4680633544922	139.8646392822266	1275.944458007812	-183.9787445068359	130.2256927490234	1071.729370117188	-209.6582794189453	179.7900848388672	1056.84228515625	-137.8540496826172	209.1423187255859	855.5078125	-291.6134643554688	139.9132690429688	838.1704711914062	-273.7406921386719	130.0908050537109	968.2113647460938	-233.2507171630859	217.9516143798828	670.7686157226562	-303.1586303710938	148.0736541748047	750.49658203125	-281.3765258789062	200.3429870605469	757.2439575195312	-322.5144348144531	531.7380981445312	1407.16796875	-187.2986602783203	597.9129638671875	1348.10546875	-182.0736999511719	648.4879150390625	1081.7646484375	-178.6967010498047	559.0892333984375	1073.655029296875	-146.7543792724609	595.8760986328125	865.4327392578125	-294.5891723632812	668.7372436523438	858.0206298828125	-250.8468322753906	660.1350708007812	1015.443298339844	-205.73681640625	594.500244140625	680.9671630859375	-315.7301635742188	613.7183837890625	752.6524658203125	-333.1226806640625	664.6868286132812	748.9801635742188	-283.9176940917969	447.2672119140625	1573.214965820312	-131.5094146728516	313.860107421875	1644.36083984375	-281.1158752441406	406.4073791503906	1644.995727539062	-287.7258911132812	301.4377136230469	1563.4443359375	-124.5345306396484	208.2577056884766	949.320556640625	-157.85498046875	511.4195251464844	957.7235717773438	-306.0260009765625	258.7616882324219	955.8399047851562	-295.0084533691406	243.5055999755859	482.4412841796875	-207.1227111816406	219.9243621826172	625.2702026367188	-206.5722045898438	264.2969360351562	41.89871215820312	-145.3095397949219	241.9670257568359	260.0598754882812	-168.8325653076172	325.7445678710938	37.10972595214844	-351.8950500488281	364.868896484375	27.2492790222168	-280.6020202636719	254.201904296875	41.34834671020508	-268.5307006835938	321.9490051269531	32.21419525146484	-97.90574645996094	543.0740356445312	482.323486328125	-203.6589508056641	577.8639526367188	743.6163330078125	-238.6698303222656	528.0542602539062	361.389892578125	-211.7499542236328	442.4749145507812	40.50116729736328	-342.6040344238281	408.9884033203125	37.83016586303711	-281.38818359375	524.3941650390625	32.33702850341797	-259.2782592773438	579.4620971679688	950.7484741210938	-194.1938781738281	515.4190063476562	39.98796081542969	-153.1416320800781	471.7784729003906	36.65350723266602	-95.75425720214844	nan	nan	nan	nan	nan	nan	nan	nan	nan	
346	3.45	479.6929931640625	1007.00341796875	-83.72393035888672	303.11474609375	998.2861328125	-88.01203155517578	389.5705871582031	1069.154296875	-101.2963180541992	384.8759155273438	1248.41064453125	-343.6553344726562	391.0627136230469	1181.9501953125	-78.72963714599609	373.2098083496094	1428.487426757812	-119.6523513793945	380.40380859375	1346.126708984375	-276.9986572265625	450.0575561523438	1290.357421875	-70.96110534667969	267.046142578125	1388.777587890625	-106.5674209594727	215.3556976318359	1394.531860351562	-199.5410919189453	139.7287139892578	1275.87451171875	-183.8169250488281	130.0339202880859	1071.745483398438	-209.6531219482422	179.6123352050781	1056.730346679688	-137.9393157958984	208.9646759033203	855.522216796875	-291.6535034179688	139.5146636962891	838.384521484375	-274.3206176757812	129.7861022949219	968.2601318359375	-233.4343719482422	217.0862274169922	670.821044921875	-303.9222412109375	147.4127197265625	750.7218017578125	-282.2140502929688	199.9867553710938	757.4398193359375	-322.9864807128906	531.5210571289062	1407.1298828125	-187.1924133300781	597.6551513671875	1348.022583007812	-182.0237426757812	648.1473388671875	1081.606201171875	-179.4024658203125	558.9642944335938	1073.530639648438	-146.9074249267578	593.9545288085938	866.3889770507812	-296.6090698242188	667.1719970703125	858.3002319335938	-253.5411529541016	659.4679565429688	1015.380615234375	-206.9436798095703	591.7957763671875	682.1511840820312	-319.6770629882812	611.107421875	753.9661865234375	-336.4453430175781	662.4442138671875	749.598388671875	-287.6686706542969	446.8561706542969	1573.282592773438	-131.4833221435547	313.5777587890625	1644.232788085938	-281.3244934082031	406.1253662109375	1644.92578125	-287.8011474609375	301.0214233398438	1563.410766601562	-124.7016143798828	208.2180633544922	949.3465576171875	-158.2998809814453	511.6821899414062	957.673828125	-305.7494201660156	259.1542663574219	955.779296875	-295.3958740234375	243.7141876220703	482.4347229003906	-207.2147369384766	220.060791015625	625.2520751953125	-206.7777099609375	264.3445129394531	41.95470428466797	-145.3385925292969	242.0683898925781	260.0711364746094	-168.8797760009766	325.7892150878906	37.05398559570312	-351.9091491699219	364.9306640625	27.18491172790527	-280.6095581054688	254.2612915039062	41.380859375	-268.5426330566406	321.9815979003906	32.21738433837891	-97.91222381591797	543.1878051757812	482.322509765625	-203.0909576416016	578.0797119140625	743.5787353515625	-238.0802917480469	528.1688232421875	361.4414672851562	-211.3255157470703	442.4880065917969	40.51935577392578	-342.5979614257812	408.9896240234375	37.83685684204102	-281.3780517578125	524.4090576171875	32.34085464477539	-259.2708740234375	579.4031372070312	950.6278076171875	-194.078857421875	515.4134521484375	39.97622680664062	-153.1157379150391	471.7667541503906	36.63486480712891	-95.74489593505859	nan	nan	nan	nan	nan	nan	nan	nan	nan	
347	3.46	479.4510498046875	1007.078918457031	-83.59688568115234	302.7413635253906	998.3771362304688	-88.31939697265625	389.3061828613281	1069.140747070312	-101.4004592895508	384.8671569824219	1248.3798828125	-343.656982421875	390.7268676757812	1181.868896484375	-78.84441375732422	372.973876953125	1428.4169921875	-119.637809753418	380.2681884765625	1346.081298828125	-276.9942626953125	449.7931518554688	1290.342895507812	-70.89868927001953	266.71875	1388.653930664062	-106.6372909545898	215.1256561279297	1394.41162109375	-199.5902709960938	139.6205596923828	1275.8076171875	-183.6766510009766	129.8407745361328	1071.763549804688	-209.7015533447266	179.3731994628906	1056.609008789062	-138.0446166992188	208.7956390380859	855.5211791992188	-291.7106323242188	139.1196899414062	838.599609375	-274.9269104003906	129.4966888427734	968.3036499023438	-233.6710205078125	216.2481079101562	670.8475952148438	-304.6206665039062	146.7622985839844	750.9356079101562	-283.0569458007812	199.6799468994141	757.6157836914062	-323.4489440917969	531.32275390625	1407.092041015625	-187.0975189208984	597.411376953125	1347.950927734375	-181.9912109375	647.8455810546875	1081.470336914062	-180.1404571533203	558.9053344726562	1073.416381835938	-147.0822448730469	592.0802612304688	867.3301391601562	-298.5509033203125	665.6286010742188	858.5839233398438	-256.1819458007812	658.8381958007812	1015.340209960938	-208.1748809814453	589.074951171875	683.336669921875	-323.4286193847656	608.4813232421875	755.2626953125	-339.6401062011719	660.2054443359375	750.2112426757812	-291.2946166992188	446.4751892089844	1573.341674804688	-131.4627685546875	313.3186950683594	1644.113159179688	-281.5223999023438	405.8504028320312	1644.853881835938	-287.8806762695312	300.6205749511719	1563.35693359375	-124.862174987793	208.1799621582031	949.3720092773438	-158.7352600097656	511.9524230957031	957.6297607421875	-305.5278930664062	259.4912414550781	955.7026977539062	-295.7662048339844	243.9255065917969	482.4203796386719	-207.2234039306641	220.2204437255859	625.224609375	-206.9134368896484	264.3930969238281	42.01228713989258	-145.3596496582031	242.1744842529297	260.0838928222656	-168.8681030273438	325.8298034667969	37.00089263916016	-351.9243774414062	364.9879150390625	27.1258716583252	-280.6230163574219	254.3130187988281	41.41492080688477	-268.5541381835938	322.0211181640625	32.22117614746094	-97.91658020019531	543.2958374023438	482.3211364746094	-202.5474700927734	578.301025390625	743.5330200195312	-237.5141296386719	528.3012084960938	361.4962158203125	-210.9116668701172	442.4985656738281	40.5348014831543	-342.5934448242188	408.9894104003906	37.8381233215332	-281.3680114746094	524.4210205078125	32.34119415283203	-259.2618713378906	579.3572387695312	950.5240478515625	-193.9972229003906	515.4083862304688	39.96975326538086	-153.0932922363281	471.7524108886719	36.61652374267578	-95.73598480224609	nan	nan	nan	nan	nan	nan	nan	nan	nan	
348	3.47	479.2605590820312	1007.150695800781	-83.49616241455078	302.4263610839844	998.4747924804688	-88.61460876464844	389.0681762695312	1069.119140625	-101.5232467651367	384.8516235351562	1248.34814453125	-343.6568908691406	390.4244079589844	1181.77392578125	-78.97623443603516	372.7471008300781	1428.339111328125	-119.62060546875	380.1419067382812	1346.03564453125	-276.9877319335938	449.5820007324219	1290.313110351562	-70.845947265625	266.4315185546875	1388.521484375	-106.6942977905273	214.9221801757812	1394.285034179688	-199.6192932128906	139.5286407470703	1275.7412109375	-183.5774688720703	129.6333923339844	1071.77490234375	-209.8009643554688	179.0866394042969	1056.479248046875	-138.1719207763672	208.6082000732422	855.4976196289062	-291.8003845214844	138.726806640625	838.7921142578125	-275.5174255371094	129.2177429199219	968.3343505859375	-233.9425048828125	215.4548034667969	670.841796875	-305.2468566894531	146.1390228271484	751.11474609375	-283.8591918945312	199.3972625732422	757.7576904296875	-323.8940734863281	531.1380004882812	1407.057739257812	-187.009033203125	597.184814453125	1347.891723632812	-181.9719543457031	647.5827026367188	1081.360107421875	-180.9109802246094	558.9186401367188	1073.314331054688	-147.2718963623047	590.2736206054688	868.2509765625	-300.4093933105469	664.115966796875	858.8709716796875	-258.7576599121094	658.2476196289062	1015.321411132812	-209.428466796875	586.3599243164062	684.5213012695312	-326.9654846191406	605.8571166992188	756.5330810546875	-342.6882934570312	657.9869995117188	750.81591796875	-294.7801513671875	446.1257934570312	1573.396728515625	-131.4466552734375	313.079345703125	1643.99951171875	-281.7102966308594	405.5841979980469	1644.779174804688	-287.9676208496094	300.2215270996094	1563.28759765625	-125.0202178955078	208.1492462158203	949.3943481445312	-159.1523284912109	512.2205200195312	957.5880737304688	-305.3626098632812	259.7695007324219	955.6122436523438	-296.1110534667969	244.1351623535156	482.3968505859375	-207.1551818847656	220.3900604248047	625.1904296875	-206.9823150634766	264.4468994140625	42.07460021972656	-145.3741455078125	242.2912902832031	260.0961303710938	-168.7972106933594	325.8648376464844	36.94872665405273	-351.9431762695312	365.041259765625	27.06589317321777	-280.6371765136719	254.3590393066406	41.44934463500977	-268.5669250488281	322.0703125	32.22704696655273	-97.91948699951172	543.3970336914062	482.3206176757812	-202.0293884277344	578.5140991210938	743.4775390625	-236.9883880615234	528.4506225585938	361.5516662597656	-210.5051116943359	442.5064697265625	40.54648590087891	-342.5904541015625	408.990478515625	37.83559036254883	-281.3584594726562	524.4296264648438	32.33866119384766	-259.2511291503906	579.3156127929688	950.440185546875	-193.9434051513672	515.4056396484375	39.96973419189453	-153.0767669677734	471.7355651855469	36.59846115112305	-95.72753143310547	nan	nan	nan	nan	nan	nan	nan	nan	nan	
